<svg width="75" height="29" viewBox="0 0 75 29" fill="none" xmlns="http://www.w3.org/2000/svg">
<path d="M8.59909 1.63915C8.31235 1.73303 7.96416 2.06161 7.84127 2.41365C7.63645 2.88305 5.36298 12.8108 4.83045 15.5568C4.74853 15.9323 4.58467 16.1905 4.46178 16.1435C4.07263 16.0731 3.64251 18.2793 3.92926 18.8895C4.09311 19.2181 4.11359 20.6263 4.01118 23.4192C3.88829 27.7142 3.86781 27.5968 4.80997 27.4795C5.5678 27.3856 5.87502 26.7754 6.44851 24.2406C6.75574 22.8559 7.10392 21.5416 7.20633 21.3069C7.45211 20.7671 7.63645 20.814 10.6063 22.1987C14.0267 23.7947 15.2966 23.8886 16.1364 22.5743C16.6894 21.7059 16.5665 21.2834 15.4605 20.5558C14.5388 19.9222 14.2316 19.8283 14.4364 20.2038C14.6412 20.5793 14.1087 20.4854 12.5316 19.8518C11.7328 19.5232 10.893 19.265 10.6677 19.265C10.4424 19.265 10.1967 19.1477 10.1352 19.0303C10.0738 18.8895 9.76655 18.7956 9.4798 18.7956C9.21354 18.7956 8.74246 18.5844 8.45572 18.3262C7.82079 17.7629 8.20994 17.6925 9.35691 18.1854C10.2991 18.5844 11.2617 18.8425 11.2617 18.7017C11.2617 18.6313 10.893 18.467 10.4424 18.3262C9.78703 18.115 9.62318 17.9742 9.62318 17.5282C9.62318 16.8241 10.3196 16.1435 13.1051 14.0547C14.6412 12.9047 15.8701 11.7781 16.6484 10.7924C17.2833 9.97095 18.1845 8.84439 18.6556 8.30459C19.4544 7.34232 20.0279 6.00454 19.7821 5.69943C19.5363 5.44127 18.2665 6.38006 15.9315 8.63317C13.3304 11.0975 10.7702 13.1628 10.2991 13.1628C9.82799 13.1628 10.0328 11.6608 11.1388 7.2015C12.2039 2.92999 12.2039 2.85958 10.5858 1.9912C9.45932 1.40445 9.39788 1.38098 8.59909 1.63915Z" fill="#E2E2E2"/>
<path d="M33.7552 1.78946C33.1612 1.85987 30.0685 2.65784 27.3035 3.45582C26.5456 3.66705 25.9722 4.86401 25.9722 6.24873C25.9722 7.7508 26.095 7.96203 27.0986 7.96203C28.5119 7.96203 28.5938 8.29061 27.836 11.0131L27.2011 13.3366L26.3203 13.5244L25.4601 13.7356L25.3987 15.003C25.3372 16.0826 25.3987 16.3173 25.7878 16.6693L26.2384 17.0449L25.7673 18.852C25.1734 21.1051 24.7228 21.5745 23.1662 21.5745C21.7939 21.5745 21.3638 21.8327 20.8722 22.9358C20.4216 23.9685 19.6843 27.1369 19.8686 27.3247C19.93 27.3951 20.7698 27.2308 21.7529 26.9491C23.3915 26.4797 23.5553 26.4797 24.0264 26.8318C24.8866 27.4655 25.7673 27.1838 25.7673 26.245C25.7673 25.7287 27.7745 24.8838 29.9661 24.5083C30.3757 24.4379 31.8504 23.8746 32.6287 23.4756C32.854 23.3582 33.448 23.0766 33.96 22.8419C34.4721 22.6072 35.4757 21.8092 36.213 21.0817C37.319 19.9786 37.6672 19.4388 38.1178 18.1949C38.8347 16.1999 38.8142 15.5663 38.0564 14.2519C37.1961 12.7733 37.0528 12.656 35.5166 12.3744C34.7793 12.2335 34.1648 12.0458 34.1648 11.9754C34.1853 11.6468 34.554 11.2713 35.701 10.4733C37.4214 9.27634 38.1383 8.4549 38.7527 7.07018C39.6744 5.00483 39.3672 2.75172 38.0564 1.97722C37.4829 1.64864 35.619 1.55476 33.7552 1.78946ZM36.3154 2.11804C35.8648 2.21192 35.0865 2.28233 34.5745 2.28233L33.6528 2.25886L34.5745 2.09457C35.0865 2.00069 35.8648 1.93028 36.3154 1.93028L37.1347 1.90681L36.3154 2.11804ZM37.3395 5.84974C39.2033 6.67119 37.4624 8.19673 30.4167 11.9519C29.1468 12.6325 28.901 12.3978 29.2287 10.8723C29.536 9.53451 30.2938 7.7508 30.8263 7.21099C31.0311 6.9763 31.9938 6.60078 32.9359 6.34261C35.66 5.61504 36.5612 5.52117 37.3395 5.84974ZM35.8239 15.3081C36.2949 15.7305 36.8684 17.0683 36.7865 17.6316C36.7046 18.2888 33.3865 19.7439 30.2119 20.5184C27.2011 21.246 27.2011 21.246 27.2011 20.448C27.2011 19.3918 27.7745 17.303 28.1637 16.8336C28.8601 16.0357 31.6251 15.3316 35.1889 15.0499C35.3528 15.0265 35.6395 15.1438 35.8239 15.3081ZM37.319 16.3173C37.4829 16.8336 37.4624 17.1153 37.2576 17.1153C37.1552 17.1153 37.0323 16.8571 36.9913 16.5285C36.8684 15.8714 37.1142 15.7305 37.319 16.3173Z" fill="#E2E2E2"/>
<path d="M51.9899 0.758385C49.8803 1.18084 46.3574 2.21351 45.6406 2.6125C44.637 3.19925 42.7731 3.80947 42.7731 3.5513C42.7731 3.43395 42.9575 3.26966 43.1828 3.19925C43.4081 3.12884 43.5924 2.94108 43.5924 2.82373C43.5924 2.70638 43.2442 2.77679 42.8346 2.98802C42.4044 3.19925 41.8924 3.41048 41.7081 3.48089C41.0936 3.69212 40.684 6.83708 41.196 7.61158C41.4213 7.96363 41.5237 7.96363 42.4454 7.65852C42.9984 7.47076 43.5309 7.30647 43.6334 7.30647C43.9406 7.30647 43.8177 8.15139 43.3056 9.44223C43.0599 10.1463 42.5273 11.7657 42.1587 13.0566C41.79 14.3474 41.4008 15.5209 41.3189 15.6617C41.1346 15.9199 40.2334 20.8016 39.5165 25.3078C39.0864 28.1008 39.2093 28.5936 40.2539 28.3589C41.196 28.1477 43.1828 27.0916 43.2647 26.7395C43.3056 26.5752 43.49 25.2609 43.6948 23.8527C43.8791 22.4211 44.2273 20.3792 44.4526 19.2996C44.6779 18.22 44.8827 17.2108 44.9032 17.0699C45.0056 16.3893 45.2719 15.7556 45.4562 15.7556C45.5586 15.7556 45.6201 15.6383 45.5996 15.474C45.5382 15.1689 47.402 14.277 47.8731 14.4178C48.0574 14.4648 47.6683 14.676 47.0333 14.8872C46.3779 15.1219 45.8454 15.3566 45.8454 15.4036C45.8454 15.7087 49.614 14.4413 49.9827 14.0423C50.1261 13.878 50.802 13.479 51.4779 13.1739C52.1538 12.8688 52.8911 12.4464 53.1164 12.2351C53.3417 12.0004 53.7308 11.7423 53.9766 11.6719C54.2019 11.578 54.4682 11.3668 54.5091 11.2025C54.5706 11.0147 54.9597 10.7565 55.3489 10.5923C55.7585 10.4514 56.0453 10.2167 55.9838 10.0994C55.9019 9.98204 55.9429 9.88816 56.0658 9.88816C56.4344 9.88816 58.0525 7.7524 58.7079 6.34421C59.8344 3.92681 59.5067 2.35433 57.6633 1.27472C56.8031 0.758385 56.2706 0.641035 54.8573 0.594095C53.8947 0.570625 52.6043 0.641035 51.9899 0.758385ZM56.3525 4.34927C57.0489 4.88908 57.1718 5.335 56.8236 6.08604C56.3525 7.09524 55.6971 7.68199 53.526 8.97283C52.3995 9.62999 51.7236 10.0994 52.0513 10.029C52.8706 9.81775 52.7272 10.0759 51.7851 10.4984C51.314 10.7096 51.0068 10.9443 51.0682 11.0147C51.1297 11.1086 50.802 11.3902 50.3104 11.6484C49.8188 11.93 48.8767 12.4933 48.1803 12.8923C45.5586 14.4648 45.5996 12.9627 48.3646 6.60238C48.8152 5.5697 48.8562 5.52276 51.0682 4.65438C52.9321 3.92681 53.526 3.786 54.5706 3.87988C55.267 3.92681 56.0453 4.13804 56.3525 4.34927ZM51.273 12.9392C51.2116 13.0566 50.9863 13.1739 50.802 13.1739C50.4947 13.1739 50.4947 13.127 50.761 12.9392C51.1706 12.6341 51.4369 12.6341 51.273 12.9392Z" fill="#E2E2E2"/>
<path d="M64.7233 1.88926C64.0269 2.59336 63.8016 3.03928 63.5558 4.16584C63.0438 6.41894 60.3811 22.6836 60.3607 23.5754C60.3607 23.6458 60.1149 24.0683 59.8281 24.4673C59.3775 25.0775 59.2956 25.3591 59.398 26.1336C59.6848 28.6684 61.0775 28.551 63.5968 25.805C64.9281 24.3499 67.5497 22.5427 69.3521 21.8621C70.069 21.5805 70.8883 21.2284 71.175 21.0407L71.7075 20.7356L71.134 20.4774C70.3557 20.1488 69.2907 20.1723 67.3449 20.5947C64.7437 21.158 64.4775 20.7356 65.1534 17.0273C65.3172 16.1589 65.7883 12.4507 66.2184 8.81287C66.9353 2.52295 66.9558 2.1709 66.6281 1.60762C66.1775 0.786179 65.7473 0.856588 64.7233 1.88926Z" fill="#E2E2E2"/>
</svg>
